<svg width="340" height="210" viewBox="0 0 340 210" fill="none" xmlns="http://www.w3.org/2000/svg">
<path d="M274.361 122.919C280.248 118.825 281.506 112.921 278.828 106.801C274.997 98.0493 263.988 90.6866 251.334 92.2666C234.876 94.3226 227.86 105.593 224.874 114.175C218.669 132.016 231.341 155.544 253.456 146.376C263.545 142.193 259.566 133.211 274.361 122.919" fill="#231F20"/>
<path d="M294.35 136.448C289.798 142.729 303.635 154.695 308.292 148.823C314.007 141.619 316.154 130.921 307.044 130.961C307.044 130.961 298.075 131.303 294.35 136.448Z" fill="#231F20"/>
<path d="M317.086 145.625C314.094 157.667 303.934 165.952 298.254 169.98C284.281 179.893 269.22 185.877 257.717 188.137C258.718 174.991 250.33 158.927 231.341 155.544C214.674 152.575 207.548 154.841 189.808 152.075C176.43 149.992 157.586 135.181 153.657 110.984C150.973 94.448 151.86 84.0707 142.909 82.312C129.297 79.6374 121.097 106.041 122.457 125.539C124.638 156.803 135.985 184.279 158.368 198.669C139.732 198.669 112.206 198.661 97.4782 198.659C115.974 183.615 115.92 158.14 105.688 144.875C96.6942 133.216 82.9742 134.443 73.1076 137.477C69.9396 127.156 67.1942 117.227 66.0782 112.56C60.3102 88.456 33.0076 78.408 14.4756 95.792C19.5049 46.8987 61.1435 6.38271 114.63 6.38271C141.278 6.38271 166.845 17.0987 185.53 35.6C179.594 42.956 179.674 52.5854 179.698 58.8107C179.773 77.484 196.133 78.7867 201.186 70.3814C207.165 60.4347 204.017 63.5134 214.313 53.7467C216.854 51.3387 217.944 47.7867 217.824 44.0547C250.741 41.1094 280.08 59.976 292.364 87.9107C294.664 95.6707 288.909 100.112 289.53 108.927C289.973 115.263 294.537 117.64 301.222 120.352C302.274 120.932 303.525 121.479 305.037 122.003C314.089 125.131 319.326 136.617 317.086 145.625V145.625ZM85.3342 198.224C71.3889 205.287 59.9089 205.221 55.0889 198.604C48.5502 189.631 56.1809 172.729 72.9169 163.396C86.6209 155.755 96.0289 157.473 100.474 162.221C109.54 171.901 102.336 189.612 85.3342 198.224V198.224ZM319.832 126.407C314.156 117.507 307.061 116.117 304.844 115.052C304.088 86.8227 288.612 62.5574 266.137 48.968C268.45 37.8747 261.478 22.4654 243.298 23.8454C232.168 24.6894 225.834 30.7987 221.829 37.4067C220.056 37.4654 218.278 37.5907 216.504 37.7667C212.385 27.2867 201.469 23.408 190.21 31.2614C170.324 11.4707 143.056 2.87628e-05 114.63 2.87628e-05C82.6542 2.87628e-05 52.4196 13.792 31.5676 39.1747C26.6889 34.7107 19.1996 31.2134 9.80222 37.3747C-6.13378 47.8214 -0.68179 70.74 12.2222 75.008C9.25821 84.6094 7.6809 94.64 7.57823 104.868C4.25156 111.063 1.81022 119.505 1.29955 131.117C0.132887 157.68 8.77423 207.596 58.5102 209.429C69.3676 209.831 78.9129 208.344 86.8076 205.039C100.516 205.047 152.784 205.075 171.436 205.068C179.141 207.815 187.8 209.325 197.493 209.325C228.404 209.325 249.884 211.651 256.234 194.956C266.894 193.143 281.95 189.036 295.781 179.767C315.484 179.035 329.472 177.749 336.08 168.268C344.197 156.624 339.441 133.847 319.832 126.407" fill="#231F20"/>
</svg>
